<?xml version="1.0" standalone="no"?>
<!DOCTYPE svg PUBLIC "-//W3C//DTD SVG 20010904//EN"
 "http://www.w3.org/TR/2001/REC-SVG-20010904/DTD/svg10.dtd">
<svg version="1.0" xmlns="http://www.w3.org/2000/svg"
 width="504.000000pt" height="504.000000pt" viewBox="0 0 504.000000 504.000000"
 preserveAspectRatio="xMidYMid meet">
<metadata>
Created by potrace 1.11, written by Peter Selinger 2001-2013
</metadata>
<g transform="translate(0.000000,504.000000) scale(0.100000,-0.100000)"
fill="#000000" stroke="none">
<path d="M2270 4929 c-1066 -108 -1951 -916 -2154 -1967 -117 -605 -9 -1215
307 -1742 187 -311 516 -640 827 -827 785 -471 1755 -471 2540 0 311 187 640
516 827 827 471 785 471 1755 0 2540 -187 311 -516 640 -827 827 -395 237
-831 356 -1289 352 -80 -1 -184 -6 -231 -10z m105 -89 c7 0 31 -58 55 -135 24
-74 46 -135 50 -135 3 0 32 59 64 130 57 128 58 130 91 130 l33 0 48 -140 c27
-76 52 -136 55 -132 3 4 30 64 59 135 l53 127 39 0 c28 0 39 -4 35 -12 -2 -7
-42 -97 -87 -200 -82 -186 -83 -188 -114 -188 l-31 0 -49 145 c-27 79 -52 142
-55 140 -3 -2 -33 -64 -66 -139 -59 -133 -61 -136 -92 -136 l-31 0 -66 198
c-36 108 -66 203 -66 211 0 10 8 12 31 7 17 -3 37 -6 44 -6z m-175 -109 c0 -5
3 -16 6 -24 4 -12 -20 -20 -113 -42 -170 -38 -156 -31 -148 -73 4 -21 8 -38 8
-39 1 -1 37 7 79 16 43 10 80 16 83 13 3 -3 5 -15 5 -28 0 -19 -8 -23 -63 -34
-35 -6 -69 -15 -76 -19 -19 -12 -4 -81 18 -81 9 0 71 13 138 28 68 16 125 26
128 24 12 -13 4 -51 -12 -56 -34 -10 -326 -76 -328 -73 -4 4 -68 292 -69 307
-1 11 38 24 154 51 169 40 190 44 190 30z m1040 -82 c85 -29 163 -58 173 -67
25 -22 21 -55 -18 -171 -39 -115 -48 -131 -79 -131 -23 0 -298 90 -334 109
-35 19 -34 44 3 161 35 106 60 150 87 150 7 0 83 -23 168 -51z m-1480 -117
c75 -75 75 -168 0 -236 -55 -49 -271 -156 -278 -137 -2 7 -33 72 -69 144 -35
71 -62 134 -61 139 2 5 60 36 128 69 109 51 133 59 184 59 54 0 61 -3 96 -38z
m1965 -120 c66 -42 128 -82 138 -90 26 -23 21 -62 -18 -120 -41 -59 -65 -66
-121 -31 -19 11 -34 17 -34 12 0 -5 13 -46 30 -91 16 -45 26 -82 21 -82 -4 0
-26 13 -47 28 -36 26 -41 37 -62 118 -20 78 -27 92 -54 107 -16 9 -33 17 -38
17 -4 0 -22 -22 -40 -50 l-32 -50 -29 21 c-17 12 -26 26 -23 32 54 96 170 265
178 260 6 -3 65 -40 131 -81z m-2481 -94 c13 -13 54 -58 90 -101 94 -112 94
-111 -57 -238 -67 -57 -130 -110 -139 -118 -10 -7 -28 -11 -42 -7 -33 8 -186
190 -186 221 0 18 28 49 118 126 109 95 168 139 184 139 4 0 18 -10 32 -22z
m1588 -57 c359 -63 697 -239 959 -500 260 -261 434 -594 501 -959 30 -166 30
-458 0 -624 -67 -365 -241 -698 -501 -959 -261 -260 -594 -434 -959 -501 -166
-30 -458 -30 -624 0 -365 67 -698 241 -959 501 -260 261 -434 594 -501 959
-30 166 -30 458 0 624 67 365 241 698 501 959 292 291 655 466 1081 518 114
15 368 5 502 -18z m1228 -106 c0 -6 -18 -29 -40 -50 -22 -21 -40 -42 -40 -46
0 -3 48 -15 108 -25 101 -18 110 -21 151 -60 l44 -41 -131 27 c-118 25 -132
26 -132 11 0 -9 11 -76 24 -149 l24 -134 -43 42 c-42 41 -43 44 -59 153 -25
165 -19 158 -82 96 l-54 -53 -26 25 -25 26 118 116 118 116 23 -21 c12 -12 22
-27 22 -33z m-3276 -218 l29 -23 -18 -35 c-10 -19 -19 -36 -21 -38 -1 -2 -16
6 -33 18 l-30 21 -71 -104 c-39 -58 -71 -108 -71 -112 0 -12 215 -154 222
-147 3 5 36 53 73 108 l66 100 -32 27 -33 27 29 30 c17 17 33 31 37 31 15 0
89 -77 89 -93 0 -20 -169 -274 -203 -306 -35 -31 -52 -26 -173 55 -123 82
-168 126 -158 157 7 24 155 249 187 285 27 29 74 29 111 -1z m3624 -184 c73
-109 122 -199 122 -226 0 -17 -8 -30 -21 -38 -18 -9 -25 -7 -42 9 -16 17 -18
24 -8 36 10 12 2 31 -45 105 -31 50 -60 94 -65 97 -5 3 -22 -3 -38 -12 l-29
-17 69 -112 c84 -137 86 -154 22 -196 -64 -40 -89 -45 -114 -24 -22 21 -169
262 -169 279 0 18 30 56 44 56 7 0 21 -9 31 -20 14 -16 15 -22 5 -35 -10 -12
-1 -32 51 -117 34 -57 64 -105 65 -107 2 -2 19 6 38 18 l35 22 -70 114 c-46
74 -69 122 -67 137 4 27 89 88 124 88 17 0 33 -15 62 -57z m-3852 -431 c7 -5
-3 -39 -32 -107 -107 -251 -151 -494 -141 -795 10 -308 55 -497 200 -842 8
-21 8 -31 0 -39 -17 -17 -82 119 -133 277 -160 491 -144 988 46 1429 37 86 40
91 60 77z m3975 -59 c47 -104 105 -288 131 -414 20 -101 23 -142 23 -364 -1
-265 -7 -325 -61 -536 -40 -161 -115 -356 -157 -407 -9 -11 -12 -11 -18 5 -4
11 4 40 22 74 38 76 102 263 127 374 42 180 55 302 55 500 -1 272 -37 459
-138 709 -24 60 -42 113 -39 118 12 19 27 4 55 -59z m-3662 -1932 c63 -91 55
-148 -26 -190 -40 -20 -77 -13 -110 22 -45 49 -87 107 -80 113 20 20 154 113
163 114 6 0 30 -27 53 -59z m3446 43 c33 -21 31 -46 -5 -98 l-29 -43 24 -13
c28 -15 33 -38 11 -46 -15 -6 -149 83 -144 95 2 3 21 32 42 64 42 61 59 68
101 41z m-116 -236 c28 -25 51 -51 51 -56 0 -21 -22 -24 -43 -5 -56 49 -57 49
-42 -8 l14 -51 -57 4 -56 5 39 -34 c34 -29 37 -35 24 -47 -12 -12 -23 -6 -78
44 -78 71 -75 85 15 77 35 -4 64 -5 64 -4 0 1 -7 27 -15 56 -10 40 -11 59 -3
68 13 16 21 11 87 -49z m-3176 -53 c33 -37 47 -61 43 -72 -6 -13 -14 -9 -49
25 -56 55 -96 59 -45 5 17 -18 19 -26 10 -35 -9 -9 -17 -6 -36 11 -22 21 -46
22 -46 2 0 -4 16 -27 36 -50 28 -33 34 -45 25 -54 -9 -9 -25 1 -68 46 l-56 58
59 60 c32 32 63 59 69 59 5 0 32 -25 58 -55z m97 -100 c10 -12 9 -27 -3 -76
-11 -42 -12 -59 -4 -56 106 43 115 45 126 34 6 -6 11 -14 11 -18 0 -3 -38 -21
-85 -39 -81 -31 -122 -34 -112 -7 2 6 12 49 22 95 10 45 21 82 25 82 4 0 13
-7 20 -15z m2865 -52 c28 -11 58 -23 69 -27 15 -5 16 -9 5 -22 -7 -9 -22 -14
-36 -11 -33 6 -87 -42 -88 -79 0 -18 -5 -29 -14 -29 -10 0 -22 29 -38 90 -20
81 -21 91 -7 102 10 7 24 9 38 3 11 -4 44 -17 71 -27z m-190 -103 c15 -16 16
-22 5 -35 -9 -11 -16 -12 -26 -4 -10 8 -22 4 -48 -16 l-35 -27 26 -36 c15 -21
28 -39 30 -41 1 -2 18 8 37 23 24 18 33 32 29 42 -5 14 11 33 28 34 5 0 29
-45 29 -55 0 -11 -112 -85 -129 -85 -22 0 -91 90 -91 120 0 12 21 34 58 59 31
22 60 40 63 40 3 1 14 -8 24 -19z m-2431 -33 c54 -36 63 -45 54 -60 -9 -16
-14 -15 -60 19 -39 28 -53 33 -59 22 -5 -8 1 -20 19 -35 20 -16 24 -24 16 -33
-9 -9 -18 -8 -39 6 -22 14 -28 15 -35 4 -6 -10 5 -24 41 -48 50 -36 57 -46 39
-57 -12 -8 -140 72 -140 87 0 16 86 138 97 138 2 0 32 -19 67 -43z m2256 -69
c0 -7 -12 -22 -26 -33 l-26 -21 32 -58 c27 -47 30 -60 19 -67 -23 -14 -26 -12
-60 50 -32 58 -33 59 -56 44 -23 -15 -53 -12 -53 6 0 11 138 91 158 91 6 0 12
-5 12 -12z m-2116 -17 c3 -5 -8 -33 -24 -62 -16 -30 -30 -57 -30 -60 0 -3 20
-17 45 -30 44 -23 55 -41 35 -54 -9 -6 -140 61 -140 72 0 4 40 76 67 121 14
22 37 29 47 13z m242 -119 c50 -21 70 -34 72 -49 4 -25 -42 -131 -60 -138 -18
-7 -149 47 -161 66 -12 19 45 149 66 149 8 0 45 -13 83 -28z m1661 16 c5 -7
20 -37 32 -67 22 -52 22 -54 4 -71 -21 -20 -118 -60 -144 -60 -19 0 -55 67
-66 123 -5 25 -1 29 58 57 70 32 101 37 116 18z m-1373 -156 c-1 -61 -12 -68
-79 -49 -42 12 -57 13 -60 4 -11 -40 -16 -47 -29 -47 -8 0 -17 4 -20 9 -5 7
29 144 40 162 2 4 37 -3 77 -15 l72 -22 -1 -42z m1133 66 c15 -20 43 -128 37
-143 -5 -13 -73 -37 -144 -51 -27 -6 -31 -3 -45 30 -22 52 -30 122 -16 131 14
8 130 43 147 44 6 1 16 -5 21 -11z m-272 -24 c10 -11 15 -30 14 -53 -2 -20 3
-46 9 -58 31 -57 2 -88 -93 -98 -33 -4 -67 -9 -76 -11 -14 -4 -19 10 -29 83
-6 48 -12 97 -13 108 -2 18 7 21 73 31 41 6 80 12 87 13 6 0 19 -6 28 -15z
m-627 -48 c2 -3 2 -11 -1 -19 -4 -11 -16 -12 -54 -6 -68 11 -73 11 -73 -5 0
-8 15 -17 36 -20 46 -9 39 -31 -9 -31 -28 0 -37 -4 -37 -17 0 -11 12 -18 43
-23 23 -3 50 -9 60 -11 25 -7 21 -34 -5 -34 -37 0 -148 22 -148 29 0 8 18 116
25 147 5 21 6 21 81 8 42 -7 79 -16 82 -18z m196 -16 c22 -8 26 -16 26 -50 0
-29 -5 -43 -20 -52 -19 -12 -19 -13 5 -43 l23 -31 -28 4 c-15 2 -43 19 -61 38
-43 44 -59 44 -59 -1 0 -28 -4 -35 -20 -35 -17 0 -20 7 -20 44 0 24 3 64 6 90
l7 46 58 0 c32 0 69 -4 83 -10z"/>
<path d="M3060 4534 c-18 -52 -30 -97 -28 -100 7 -6 240 -84 253 -84 6 0 24
39 39 88 16 48 31 92 33 98 4 11 -222 94 -254 94 -6 0 -26 -43 -43 -96z"/>
<path d="M1522 4470 c-45 -21 -82 -42 -82 -45 0 -2 21 -47 47 -99 l47 -95 78
41 c114 59 145 103 118 172 -29 78 -87 85 -208 26z"/>
<path d="M3591 4373 c-23 -35 -23 -37 -5 -50 44 -33 162 -103 172 -103 16 0
53 61 45 73 -7 11 -170 117 -180 117 -5 0 -19 -17 -32 -37z"/>
<path d="M1081 4174 c-90 -76 -100 -88 -88 -103 78 -94 121 -141 129 -141 5 0
54 39 109 86 89 77 99 88 86 103 -77 92 -121 141 -127 141 -3 0 -52 -39 -109
-86z"/>
<path d="M2310 4219 c-505 -65 -954 -341 -1235 -759 -394 -587 -394 -1353 0
-1940 535 -797 1617 -1010 2415 -475 797 534 1010 1617 475 2415 -283 422
-732 696 -1245 759 -97 13 -315 12 -410 0z m1185 -713 l193 -329 -65 -111
c-36 -61 -74 -127 -85 -146 l-20 -35 115 -198 116 -198 -115 -196 -115 -195
82 -140 c45 -77 82 -145 83 -153 0 -7 -84 -160 -189 -339 l-190 -326 -383 3
-384 2 -86 147 -87 148 -235 2 -235 3 -111 190 -112 190 -171 5 -171 5 -190
325 c-113 193 -188 331 -184 340 3 8 89 158 191 332 l185 318 170 2 170 3 112
190 112 190 234 5 235 5 70 120 c38 67 78 133 88 148 l18 27 381 -2 381 -3
192 -329z"/>
<path d="M2616 3590 l-27 -50 273 0 273 0 134 -230 135 -231 28 46 c15 25 28
48 28 52 -1 5 -60 109 -133 233 l-133 225 -275 3 -276 2 -27 -50z"/>
<path d="M2016 3213 l-35 -58 61 -5 60 -5 189 -323 c104 -178 189 -327 189
-332 0 -5 -85 -154 -189 -332 l-189 -323 -60 -5 -61 -5 35 -57 36 -58 74 0
c41 0 74 3 74 8 0 4 -11 24 -23 46 l-24 38 191 327 191 326 387 3 387 2 21
-39 c11 -22 24 -42 29 -45 5 -3 25 21 44 54 l36 60 -39 66 -39 66 -28 -51 -28
-51 -385 0 -386 0 -193 329 -192 330 25 40 c14 22 26 43 26 46 0 3 -33 5 -74
5 l-74 0 -36 -57z"/>
<path d="M2405 3230 c-14 -22 -25 -45 -25 -51 0 -7 60 -115 133 -240 l132
-228 272 -1 271 0 31 50 31 51 -132 229 -133 229 -277 1 -278 0 -25 -40z"/>
<path d="M1387 2858 c-30 -51 -89 -152 -131 -224 -42 -72 -76 -136 -76 -144 0
-12 242 -435 259 -453 5 -5 31 -7 59 -5 l52 3 -130 222 c-72 123 -130 227
-130 233 0 6 53 102 118 213 66 111 124 212 131 225 11 22 11 22 -43 22 l-55
0 -54 -92z"/>
<path d="M1732 2726 c-73 -124 -132 -230 -132 -236 0 -6 59 -112 132 -236
l132 -225 65 3 65 3 134 228 133 227 -133 228 -134 227 -65 3 -65 3 -132 -225z"/>
<path d="M2527 2058 c-68 -117 -129 -223 -136 -236 -10 -19 -8 -29 15 -67 l26
-45 276 0 277 1 133 229 133 230 -28 50 -28 50 -272 0 -271 0 -125 -212z"/>
<path d="M3269 1670 l-134 -230 -272 0 -272 0 27 -47 28 -48 275 -3 275 -2
136 232 136 232 -30 48 c-16 26 -31 48 -32 48 -2 0 -63 -104 -137 -230z"/>
<path d="M769 1299 c-24 -18 -46 -33 -48 -35 -9 -8 46 -75 66 -80 26 -7 59 9
73 37 9 16 6 29 -15 65 -14 24 -27 44 -29 44 -2 0 -23 -14 -47 -31z"/>
<path d="M4246 1317 c-18 -23 -22 -35 -14 -44 16 -20 25 -16 47 21 25 40 25
42 6 49 -9 4 -24 -6 -39 -26z"/>
<path d="M3910 902 c0 -33 15 -44 33 -24 16 18 16 19 -8 30 -21 10 -25 9 -25
-6z"/>
<path d="M1656 533 c-10 -24 -17 -45 -15 -47 6 -4 89 -36 95 -36 3 0 13 19 24
42 l19 42 -32 14 c-76 33 -71 33 -91 -15z"/>
<path d="M3319 557 l-46 -22 19 -42 18 -42 51 21 c38 16 48 25 43 37 -3 9 -11
28 -16 44 -12 32 -10 32 -69 4z"/>
<path d="M1917 483 c-16 -15 -5 -30 30 -41 39 -12 53 -9 53 13 0 12 -8 16 -61
31 -8 2 -18 1 -22 -3z"/>
<path d="M3085 472 c-27 -8 -51 -15 -52 -16 -4 -3 23 -87 28 -88 11 -4 99 23
99 30 0 4 -6 25 -13 47 l-12 41 -50 -14z"/>
<path d="M2778 453 c-10 -2 -18 -14 -18 -25 0 -18 4 -19 53 -13 60 8 61 9 54
30 -6 15 -49 19 -89 8z"/>
<path d="M2793 373 c-15 -3 -23 -12 -23 -24 0 -15 7 -19 39 -19 52 0 71 8 71
31 0 19 -29 23 -87 12z"/>
<path d="M2360 380 c0 -17 7 -20 45 -20 38 0 45 3 45 20 0 17 -7 20 -45 20
-38 0 -45 -3 -45 -20z"/>
</g>
</svg>
